<?xml version="1.0" standalone="no"?><!DOCTYPE svg PUBLIC "-//W3C//DTD SVG 1.1//EN" "http://www.w3.org/Graphics/SVG/1.1/DTD/svg11.dtd"><svg t="1651038070359" class="icon" viewBox="0 0 1024 1024" version="1.1" xmlns="http://www.w3.org/2000/svg" p-id="1152" xmlns:xlink="http://www.w3.org/1999/xlink" width="200" height="200"><defs><style type="text/css">@font-face { font-family: feedback-iconfont; src: url("//at.alicdn.com/t/font_1031158_u69w8yhxdu.woff2?t=1630033759944") format("woff2"), url("//at.alicdn.com/t/font_1031158_u69w8yhxdu.woff?t=1630033759944") format("woff"), url("//at.alicdn.com/t/font_1031158_u69w8yhxdu.ttf?t=1630033759944") format("truetype"); }
</style></defs><path d="M580.44416 758.21056L394.26048 538.94144l-32.37888-38.15424c-26.9312-31.83616-38.5536-71.50592-35.38944-110.05952 3.15392-38.5536 21.06368-75.80672 52.81792-102.84032 63.68256-54.05696 158.94528-46.25408 213.00224 17.42848l30.33088 35.7376a3.175424 3.175424 0 0 0 4.46464 0.36864l35.7376-30.33088c63.5904-54.05696 158.94528-46.25408 212.91008 17.41824 27.02336 31.8464 38.5536 71.50592 35.38944 110.05952-3.15392 38.5536-20.97152 75.81696-52.81792 102.84032l-38.15424 32.37888-172.8512 146.69824" fill="#FFB7A1" p-id="1153"></path><path d="M580.44416 768.16384c-2.816 0-5.62176-1.18784-7.58784-3.51232l-218.56256-257.4336c-27.83232-32.89088-41.22624-74.55744-37.72416-117.30944 3.50208-42.76224 23.49056-81.68448 56.27904-109.60896 32.83968-27.86304 74.50624-41.23648 117.37088-37.77536 42.8544 3.51232 81.79712 23.52128 109.66016 56.35072l25.94816 30.5664 30.5664-25.94816c32.77824-27.87328 74.43456-41.29792 117.31968-37.76512 42.87488 3.51232 81.79712 23.52128 109.6192 56.35072 27.82208 32.78848 41.22624 74.45504 37.72416 117.2992-3.51232 42.8544-23.5008 81.78688-56.28928 109.6192L653.76256 728.07424c-4.18816 3.56352-10.46528 3.04128-14.01856-1.14688-3.55328-4.18816-3.04128-10.46528 1.14688-14.01856l210.9952-179.07712c28.74368-24.40192 46.26432-58.51136 49.33632-96.07168 3.072-37.56032-8.67328-74.07616-33.06496-102.81984-24.38144-28.7744-58.50112-46.31552-96.07168-49.38752-37.5296-3.0208-74.07616 8.68352-102.8096 33.10592l-35.7376 30.33088c-2.67264 2.27328-6.06208 3.328-9.56416 3.072-3.49184-0.28672-6.66624-1.91488-8.92928-4.58752l-30.33088-35.72736c-24.4224-28.7744-58.55232-46.31552-96.11264-49.38752-37.60128-3.1232-74.09664 8.68352-102.87104 33.10592-28.74368 24.4736-46.27456 58.60352-49.33632 96.07168-3.072 37.4784 8.67328 73.99424 33.0752 102.83008l218.55232 257.41312c3.55328 4.17792 3.04128 10.46528-1.14688 14.01856a9.878528 9.878528 0 0 1-6.43072 2.36544z" fill="#6F6973" p-id="1154"></path><path d="M477.7472 389.79584c-55.62368-28.13952-123.392-5.90848-151.54176 49.70496l-15.79008 31.21152a2.36544 2.36544 0 0 1-3.1744 1.04448l-31.21152-15.79008c-55.552-28.17024-123.392-5.90848-151.47008 49.68448-14.06976 27.81184-15.53408 58.59328-6.53312 86.02624 9.00096 27.43296 28.416 51.37408 56.2176 65.44384l33.32096 16.85504 191.488 96.89088c5.33504 2.70336 11.85792 0.5632 14.56128-4.77184l96.96256-191.51872 16.85504-33.32096c14.00832-27.79136 15.53408-58.59328 6.53312-86.02624-9.00096-27.42272-28.47744-51.33312-56.2176-65.4336z" fill="#F6D0C5" p-id="1155"></path><path d="M403.92704 782.00832c-3.21536 0-6.41024-0.75776-9.35936-2.2528L169.74848 666.0096c-29.24544-14.7968-50.96448-40.0896-61.184-71.2192-10.20928-31.1296-7.69024-64.37888 7.10656-93.62432 14.77632-29.25568 40.06912-50.9952 71.20896-61.21472 31.16032-10.20928 64.39936-7.66976 93.63456 7.14752l24.43264 12.36992 12.36992-24.45312c30.54592-60.37504 104.50944-84.62336 164.90496-54.08768l0.01024 0.01024c29.25568 14.85824 50.98496 40.15104 61.17376 71.20896 10.1888 31.05792 7.66976 64.3072-7.10656 93.60384L422.48192 770.60096c-2.5088 4.94592-6.78912 8.63232-12.06272 10.36288-2.12992 0.69632-4.32128 1.04448-6.49216 1.04448zM225.18784 453.6832c-10.76224 0-21.57568 1.72032-32.1024 5.1712-26.09152 8.56064-47.27808 26.7776-59.65824 51.29216-12.40064 24.51456-14.52032 52.36736-5.95968 78.44864s26.75712 47.27808 51.26144 59.66848l224.80896 113.75616c0.37888 0.2048 1.01376-0.02048 1.18784-0.39936L518.5536 536.7808c12.36992-24.55552 14.4896-52.41856 5.95968-78.42816-8.52992-26.01984-26.74688-47.21664-51.27168-59.67872-50.59584-25.56928-112.56832-5.24288-138.15808 45.33248l-15.79008 31.21152a12.240896 12.240896 0 0 1-7.14752 6.13376c-3.1232 1.024-6.4512 0.768-9.39008-0.7168l-31.21152-15.79008c-14.62272-7.41376-30.43328-11.1616-46.35648-11.1616z" fill="#6F6973" p-id="1156"></path><path d="M365.38368 682.52672c-1.93536 0-3.91168-0.3072-5.85728-0.94208-121.36448-39.77216-184.2176-81.82784-192.14336-128.58368-4.62848-27.27936 11.49952-47.83104 21.76-55.67488 8.23296-6.2976 20.02944-4.73088 26.32704 3.51232 6.2464 8.18176 4.75136 19.84512-3.31776 26.18368-1.16736 0.96256-9.80992 8.5504-7.66976 20.06016 2.64192 14.14144 24.17664 52.08064 166.73792 98.79552 9.86112 3.23584 15.22688 13.84448 12.00128 23.69536-2.59072 7.936-9.94304 12.9536-17.83808 12.9536zM345.856 508.3136c-1.66912 0-3.3792-0.32768-5.0176-1.03424-6.52288-2.77504-9.56416-10.31168-6.78912-16.82432 1.30048-3.06176 32.60416-74.99776 95.01696-70.8608 7.07584 0.47104 12.43136 6.58432 11.96032 13.66016-0.47104 7.07584-6.59456 12.4416-13.66016 11.96032-44.41088-2.83648-69.44768 54.70208-69.69344 55.27552a12.826624 12.826624 0 0 1-11.81696 7.82336z" fill="#FFFFFF" p-id="1157"></path></svg>