<?xml version="1.0" standalone="no"?><!DOCTYPE svg PUBLIC "-//W3C//DTD SVG 1.1//EN" "http://www.w3.org/Graphics/SVG/1.1/DTD/svg11.dtd"><svg t="1651038149926" class="icon" viewBox="0 0 1024 1024" version="1.1" xmlns="http://www.w3.org/2000/svg" p-id="2216" xmlns:xlink="http://www.w3.org/1999/xlink" width="200" height="200"><defs><style type="text/css">@font-face { font-family: feedback-iconfont; src: url("//at.alicdn.com/t/font_1031158_u69w8yhxdu.woff2?t=1630033759944") format("woff2"), url("//at.alicdn.com/t/font_1031158_u69w8yhxdu.woff?t=1630033759944") format("woff"), url("//at.alicdn.com/t/font_1031158_u69w8yhxdu.ttf?t=1630033759944") format("truetype"); }
</style></defs><path d="M512.007 903.94a206.069 206.069 0 0 1-146.15-60.435L105.888 583.537a252.251 252.251 0 0 1 0-356.749l32.914-32.913c98.518-98.5 258.23-98.5 356.748 0l16.457 16.457 16.456-16.457c98.52-98.5 258.23-98.5 356.749 0l32.913 32.913c98.5 98.52 98.5 258.23 0 356.749L658.157 843.505a206.069 206.069 0 0 1-146.15 60.434z m-194.81-714.984a182.81 182.81 0 0 0-129.704 53.632l-32.902 32.902c-71.498 71.51-71.498 187.846 0 259.387l260 259.915c53.729 53.728 141.167 53.74 194.896 0l259.925-259.958c71.498-71.498 71.498-187.834 0-259.387l-32.913-32.859c-71.51-71.498-187.846-71.498-259.387 0l-108.857 108.91-0.161 0.162-20.02 20.019c-13.448 13.452-35.255 13.454-48.707 0.005-13.452-13.448-13.454-35.256-0.005-48.707l63.932-63.932-16.414-16.457a182.81 182.81 0 0 0-129.704-53.632h0.021z" fill="#476644" p-id="2217"></path><path d="M511.329 650.053a213.444 213.444 0 0 1-151.92-62.921c-12.435-12.638-12.355-32.939 0.18-45.477 12.536-12.539 32.837-12.624 45.477-0.19 58.594 58.593 153.91 58.593 212.514 0a32.289 32.289 0 1 1 45.635 45.667 213.466 213.466 0 0 1-151.886 62.92z" fill="#476644" p-id="2218"></path></svg>