<?xml version="1.0" standalone="no"?><!DOCTYPE svg PUBLIC "-//W3C//DTD SVG 1.1//EN" "http://www.w3.org/Graphics/SVG/1.1/DTD/svg11.dtd"><svg t="1651037969140" class="icon" viewBox="0 0 1113 1024" version="1.1" xmlns="http://www.w3.org/2000/svg" p-id="1433" xmlns:xlink="http://www.w3.org/1999/xlink" width="217.3828125" height="200"><defs><style type="text/css">@font-face { font-family: feedback-iconfont; src: url("//at.alicdn.com/t/font_1031158_u69w8yhxdu.woff2?t=1630033759944") format("woff2"), url("//at.alicdn.com/t/font_1031158_u69w8yhxdu.woff?t=1630033759944") format("woff"), url("//at.alicdn.com/t/font_1031158_u69w8yhxdu.ttf?t=1630033759944") format("truetype"); }
</style></defs><path d="M638.821807 98.854503c143.580354-50.252896 318.344161 42.637856 390.382259 207.484825 72.047196 164.856067-15.639491 343.686687-159.219845 393.957779" fill="#FF9E9E" p-id="1434"></path><path d="M714.981306 103.467197s244.545597 40.818253 268.810008 265.239037-23.454688 29.705025-81.47729 29.705025c0 0 55.320492 163.482266 75.982088 229.138105 0 0 126.234985-104.176843 63.117492-307.367404s-282.875542-221.145497-326.432298-216.714763z" fill="#CC5656" opacity=".33" p-id="1435"></path><path d="M882.639562 404.229441c104.286019 102.639278 106.583268 347.20762-15.266472 481.94925-121.867937 134.741631-315.705736 111.336982-420.0145 28.58142" fill="#FF9E9E" p-id="1436"></path><path d="M891.737579 404.229441l-6.277632 7.360295c59.191698 109.712986 45.744829 288.288862-53.378065 393.898643-94.451063 100.619518-233.941858 105.805388-336.817684 63.763451l-38.807591 45.517379c104.308764 82.746464 298.146563 106.16021 420.0145-28.58142 121.849741-134.750729 119.552491-379.323619 15.266472-481.958348z" fill="#CC5656" opacity=".33" p-id="1437"></path><path d="M609.735447 731.234914c25.105978 23.086218 28.253892 50.730542-7.578648 94.910512-95.542825 117.819319-282.716327 124.383538-418.103917 14.606866C8.229156 664.942213 31.529178 332.314166 177.793447 308.995949" fill="#FF9E9E" p-id="1438"></path><path d="M156.781577 367.405217s-147.651717 531.801834 406.012651 432.592508c0 0-170.196602 137.143507-386.652071-79.311962S113.697917 347.858128 154.575307 328.711351l2.20627 38.693866z" fill="#FFB0B0" p-id="1439"></path><path d="M628.363636 750.663729c-94.014358 102.006966-278.194612 107.684128-411.412325 12.646243-158.000711-139.022247-152.564646-391.214727-40.809154-449.310114-137.912289 35.618736-156.545028 357.752221 15.493922 529.782074 135.38759 109.776672 322.561092 103.212453 418.103917-14.606866 28.526832-35.159286 32.284313-59.828559 20.00199-80.080745-0.477646 0.527685-0.887057 1.037174-1.37835 1.569408z" fill="#CC5656" opacity=".33" p-id="1440"></path><path d="M223.37906 500.177127c-116.659322-128.950743-16.585685-337.854858 141.874476-410.584405 112.210392-51.490227 340.788969-47.678158 340.788969 94.633023" fill="#FF9E9E" p-id="1441"></path><path d="M209.208899 447.749805S154.370602 282.038524 338.5827 161.726349c184.207549-120.312176 334.779728-27.34409 334.779728-27.34409s-115.781363-138.799346-349.241026 0C90.661739 273.177056 209.208899 447.749805 209.208899 447.749805z" fill="#FFB0B0" p-id="1442"></path><path d="M537.424408 312.193901c-132.685479-11.031346-176.938233-87.700334-105.309546-147.824578 97.321487-81.704741 267.918402-68.617244 381.011302 29.204634 113.097448 97.849172 87.650295 262.568768-9.657545 344.278058" fill="#FF9E9E" p-id="1443"></path><path d="M443.814912 178.307485s182.64269-112.333215 320.104627 25.119624c137.457389 137.457389 35.354894 210.045917-87.691236 151.104414l28.554126 68.762812s99.914422 51.203639 107.106405 107.106404c0 0 224.16149-280.678371-134.400455-404.306774-0.004549 0-145.177056-44.157225-233.673467 52.21352z" fill="#CC5656" opacity=".33" p-id="1444"></path><path d="M684.348283 403.665364c107.743265 32.188784 150.758689 137.166252 96.088706 234.510484-54.683631 97.316938-186.318288 169.118487-294.066103 136.94335" fill="#FF9E9E" p-id="1445"></path><path d="M644.99936 687.755491s158.837728-61.397967 69.122184-195.85301l-3.598266-78.429455s133.759045 88.673822 76.136755 216.046059-193.746819 140.678087-193.74682 140.678086l52.086147-82.44168z" fill="#CC5656" opacity=".33" p-id="1446"></path><path d="M550.002417 583.301159c96.261568 38.898571 122.077191 108.193617 47.20506 153.09233-99.837089 59.887696-255.17208 8.192764-329.348212-115.467481-74.18523-123.678442-39.098728-272.462862 60.747459-332.359656 61.748241-37.042576 79.543962 4.453479 101.688535 70.737081" fill="#FF9E9E" p-id="1447"></path><path d="M374.861042 293.920535s-155.676167 67.275286-77.974554 238.550003 211.092188 174.058711 251.710285 133.440614c40.613548-40.618097-33.357879-63.686118-33.357879-63.686118s134.991826 3.525482 118.27422 87.94598c-16.722155 84.420499-227.450423 109.176203-342.690454-45.490084s-10.853934-370.962542 84.038382-350.760395z" fill="#CC5656" opacity=".33" p-id="1448"></path><path d="M380.820243 297.400526s-205.99275 107.697775 14.020044 354.335916c0 0-270.82067-204.946478-36.160068-370.221054-0.009098 0 15.220982 2.70666 22.140024 15.885138z" fill="#FFB0B0" p-id="1449"></path><path d="M375.234061 459.276992a162.140308 146.159642 0 1 0 324.280617 0 162.140308 146.159642 0 1 0-324.280617 0Z" fill="#FFECA8" p-id="1450"></path><path d="M644.917478 368.983723a121.649584 121.649584 0 0 1 6.118417 38.029711c0 73.921387-66.474661 133.845476-148.479637 133.845476-42.565072 0-80.917762-16.171725-107.988911-42.041937 18.182387 55.393276 75.017698 95.815765 142.352121 95.815766 82.004975 0 148.479636-59.924088 148.479636-133.845476 0.004549-35.550501-15.398394-67.839363-40.481626-91.80354z" fill="#CC7956" opacity=".33" p-id="1451"></path><path d="M600.150686 416.470822m-20.470538 0a20.470538 20.470538 0 1 0 40.941076 0 20.470538 20.470538 0 1 0-40.941076 0Z" fill="#CC7956" opacity=".32" p-id="1452"></path><path d="M515.994029 411.921814m-25.019546 0a25.019547 25.019547 0 1 0 50.039093 0 25.019547 25.019547 0 1 0-50.039093 0Z" fill="#CC7956" opacity=".32" p-id="1453"></path><path d="M480.739214 488.117706m-21.60779 0a21.60779 21.60779 0 1 0 43.21558 0 21.60779 21.60779 0 1 0-43.21558 0Z" fill="#CC7956" opacity=".32" p-id="1454"></path><path d="M554.091975 468.215794m-17.627408 0a17.627408 17.627408 0 1 0 35.254816 0 17.627408 17.627408 0 1 0-35.254816 0Z" fill="#CC7956" opacity=".32" p-id="1455"></path><path d="M564.327244 360.745469m-10.235269 0a10.235269 10.235269 0 1 0 20.470538 0 10.235269 10.235269 0 1 0-20.470538 0Z" fill="#CC7956" opacity=".32" p-id="1456"></path><path d="M447.190276 420.451205m-17.627407 0a17.627408 17.627408 0 1 0 35.254815 0 17.627408 17.627408 0 1 0-35.254815 0Z" fill="#CC7956" opacity=".32" p-id="1457"></path><path d="M506.368328 289.571682s-118.952022-33.075841 0-96.002274c118.947473-62.921885 300.234558 3.602815 323.252541 125.102282 0 0-69.190419-263.89253-345.597271-166.31175 0 0-176.064823 87.650295 22.34473 137.211742z" fill="#FFB0B0" p-id="1458"></path></svg>