<?xml version="1.0" standalone="no"?><!DOCTYPE svg PUBLIC "-//W3C//DTD SVG 1.1//EN" "http://www.w3.org/Graphics/SVG/1.1/DTD/svg11.dtd"><svg t="1651137378624" class="icon" viewBox="0 0 1024 1024" version="1.1" xmlns="http://www.w3.org/2000/svg" p-id="7394" xmlns:xlink="http://www.w3.org/1999/xlink" width="200" height="200"><defs><style type="text/css">@font-face { font-family: feedback-iconfont; src: url("//at.alicdn.com/t/font_1031158_u69w8yhxdu.woff2?t=1630033759944") format("woff2"), url("//at.alicdn.com/t/font_1031158_u69w8yhxdu.woff?t=1630033759944") format("woff"), url("//at.alicdn.com/t/font_1031158_u69w8yhxdu.ttf?t=1630033759944") format("truetype"); }
</style></defs><path d="M775.261091 145.408a14.848 14.848 0 0 1 16.151273 3.258182l131.816727 131.770182 1.675636 2.234181a10.333091 10.333091 0 0 1-1.675636 12.427637L791.412364 426.821818l-2.792728 2.187637a14.848 14.848 0 0 1-22.528-12.70691v-38.120727l0.325819-3.258182a16.896 16.896 0 0 1 4.654545-8.657454l43.380364-43.426909-3.258182-7.912728h-57.250909l-9.681455 0.186182c-121.995636 5.399273-214.388364 112.453818-214.016 252.369455 3.165091 176.174545-117.480727 307.944727-278.807273 307.944727H114.594909l-3.397818-0.325818a16.896 16.896 0 0 1-13.498182-16.570182v-21.550545l0.325818-3.397819a16.896 16.896 0 0 1 16.570182-13.498181h136.797091l9.914182-0.232728c121.576727-5.12 211.269818-104.168727 213.550545-240.546909v-11.729454l0.139637-11.543273c4.794182-168.448 124.741818-296.494545 278.900363-296.494545h56.180364l3.304727-7.959273-42.356363-42.356364-2.141091-2.606545a16.896 16.896 0 0 1-2.839273-9.402182V159.185455l0.418909-3.49091a14.848 14.848 0 0 1 8.750545-10.24z m-155.136 634.833455a16.896 16.896 0 0 1 14.056727 2.466909l4.189091 2.885818 6.935273 4.468363a209.268364 209.268364 0 0 0 108.683636 30.068364h93.696l3.397818 0.325818c7.68 1.582545 13.498182 8.378182 13.498182 16.570182v21.550546l-0.325818 3.397818a16.896 16.896 0 0 1-16.570182 13.498182h-93.742545l-13.032728-0.325819a263.912727 263.912727 0 0 1-152.855272-57.530181 13.265455 13.265455 0 0 1 2.094545-22.155637l26.530909-13.870545zM251.438545 259.537455l13.405091 0.325818a269.312 269.312 0 0 1 134.376728 42.356363l4.189091 2.792728a16.896 16.896 0 0 1 1.861818 26.251636l-16.290909 15.313455-3.072 2.280727-3.397819 1.489454a16.942545 16.942545 0 0 1-10.891636-0.279272l-3.397818-1.675637-5.399273-3.444363-5.585454-3.258182a216.948364 216.948364 0 0 0-105.797819-26.763637H114.641455L111.243636 314.647273a16.896 16.896 0 0 1-13.498181-16.570182V276.48l0.325818-3.444364a16.896 16.896 0 0 1 16.570182-13.498181h136.79709z" fill="#333333" p-id="7395"></path></svg>